<?xml version="1.0" standalone="no"?>
<!DOCTYPE svg PUBLIC "-//W3C//DTD SVG 20010904//EN"
 "http://www.w3.org/TR/2001/REC-SVG-20010904/DTD/svg10.dtd">
<svg version="1.0" xmlns="http://www.w3.org/2000/svg"
 width="2000.000000pt" height="2000.000000pt" viewBox="0 0 2000.000000 2000.000000"
 preserveAspectRatio="xMidYMid meet">

<g transform="translate(0.000000,2000.000000) scale(0.100000,-0.100000)"
fill="#000000" stroke="none">
<path d="M12735 15099 c-38 -5 -110 -13 -160 -19 -99 -10 -303 -56 -405 -90
-85 -29 -261 -117 -330 -166 -232 -164 -340 -291 -507 -599 -58 -107 -162
-416 -178 -528 -3 -27 -13 -67 -21 -89 -8 -22 -14 -59 -14 -82 0 -22 -5 -59
-10 -81 -43 -174 -44 -187 -47 -1410 -4 -1322 5 -1195 -89 -1195 -33 0 -56 5
-64 15 -9 11 -10 273 -5 1197 7 1172 7 1183 -13 1208 l-19 24 -424 -2 c-232
-1 -426 -5 -430 -9 -5 -5 -10 -555 -14 -1223 -3 -740 -9 -1218 -15 -1224 -6
-6 -13 0 -19 15 -5 13 -21 52 -35 85 -14 34 -26 68 -26 77 0 18 -55 67 -76 67
-36 0 -91 -45 -117 -94 -45 -86 -77 -174 -77 -209 0 -18 -7 -42 -15 -53 -8
-10 -15 -29 -15 -42 0 -54 -42 -84 -55 -39 -4 12 -16 41 -27 65 -13 27 -18 52
-14 68 4 15 -1 41 -13 68 -10 24 -22 65 -26 92 -3 27 -18 74 -33 104 -21 43
-35 59 -67 73 -84 38 -88 41 -107 97 -11 30 -23 74 -27 97 -4 24 -15 58 -24
75 -8 18 -34 76 -58 128 -23 52 -72 140 -108 194 -36 54 -77 117 -90 140 -47
78 -309 317 -444 405 -12 8 -47 30 -77 49 -30 19 -66 42 -80 51 -93 60 -381
183 -506 215 -28 7 -59 18 -70 23 -10 6 -41 13 -68 17 -27 3 -55 11 -62 17 -8
6 -51 15 -96 20 -46 5 -103 16 -128 26 -53 20 -164 23 -181 6 -9 -9 -14 -50
-15 -120 -1 -60 -8 -121 -14 -138 -10 -26 -17 -130 -33 -505 -2 -52 -10 -108
-17 -125 l-13 -30 -9 30 c-5 17 -6 218 -2 475 6 401 5 446 -9 458 -19 16 -47
12 -57 -8 -25 -51 -33 -104 -39 -255 -7 -170 -16 -219 -32 -179 -5 10 -8 103
-7 206 0 102 -3 191 -6 197 -9 15 -49 14 -64 -1 -7 -7 -12 -36 -12 -65 0 -33
-7 -68 -19 -91 -16 -31 -19 -66 -23 -224 -2 -103 -7 -190 -11 -194 -18 -18
-22 21 -23 201 -1 106 -5 198 -8 204 -4 6 -16 16 -26 21 -15 8 -24 6 -39 -9
-20 -20 -20 -34 -19 -723 1 -504 -2 -717 -11 -753 -6 -28 -16 -204 -21 -395
-10 -358 -15 -426 -31 -435 -5 -4 -14 6 -21 22 -17 41 -17 1073 0 1203 8 58
15 277 19 562 5 424 4 470 -11 493 -20 31 -40 32 -60 3 -12 -16 -16 -47 -16
-113 0 -49 -7 -121 -15 -160 -21 -96 -35 -265 -35 -415 0 -69 -7 -168 -16
-220 -11 -73 -17 -241 -25 -725 -5 -346 -13 -670 -18 -720 -5 -49 -10 -196
-11 -325 -1 -129 -5 -244 -9 -254 -15 -39 -25 8 -32 164 -4 85 -12 176 -18
201 -5 25 -12 142 -15 260 -4 118 -11 234 -17 259 -6 25 -14 223 -19 440 -5
217 -14 422 -20 455 -5 33 -15 224 -20 425 -10 391 -12 406 -39 490 -26 79
-45 78 -71 -7 -17 -56 -22 -113 -30 -313 -5 -135 -14 -281 -20 -325 -6 -44
-14 -381 -19 -750 -8 -597 -24 -1106 -37 -1174 -11 -56 -25 5 -34 150 -5 85
-14 179 -21 209 -7 38 -11 348 -11 1020 l0 965 -25 75 c-29 90 -36 99 -62 76
-25 -23 -41 -89 -41 -173 0 -37 -9 -101 -20 -142 -13 -50 -20 -108 -20 -175
-1 -56 -7 -128 -15 -161 -8 -33 -20 -125 -25 -205 -6 -80 -15 -170 -20 -200
-21 -114 -29 -210 -29 -370 -1 -142 -17 -332 -37 -420 -12 -55 -22 11 -26 185
-3 125 -9 188 -18 205 -9 17 -16 86 -21 210 -5 115 -13 205 -23 239 -9 29 -18
94 -22 145 -7 96 -34 180 -61 191 -23 8 -52 -23 -58 -64 -3 -20 -15 -55 -26
-79 -10 -23 -19 -62 -19 -86 0 -24 -9 -63 -20 -87 -11 -24 -20 -64 -20 -89 0
-25 -9 -70 -20 -100 -11 -30 -20 -75 -20 -100 0 -25 -9 -74 -20 -108 -13 -40
-20 -92 -20 -139 0 -42 -9 -109 -20 -155 -12 -46 -21 -113 -21 -157 0 -124
-27 -142 -36 -24 -3 37 -12 80 -19 95 -8 15 -14 57 -14 95 0 42 -9 102 -24
153 -44 156 -51 412 -17 670 12 96 26 213 31 260 5 47 14 121 20 165 6 44 15
118 20 165 10 96 35 290 49 395 6 39 15 117 21 175 6 58 18 155 26 215 9 61
20 151 24 200 5 50 15 135 23 190 25 164 28 253 11 270 -13 13 -82 15 -489 15
l-474 0 -15 -22 c-10 -14 -16 -45 -16 -83 0 -33 -7 -103 -15 -155 -8 -52 -19
-165 -25 -250 -6 -85 -15 -177 -20 -205 -5 -27 -14 -115 -20 -195 -6 -80 -14
-172 -19 -205 -5 -33 -14 -121 -20 -195 -6 -74 -18 -196 -26 -270 -30 -280
-47 -459 -56 -595 -5 -77 -14 -159 -19 -182 -6 -23 -10 -63 -10 -88 0 -54 -18
-66 -55 -37 -39 31 -88 36 -133 13 -68 -34 -64 -45 -97 294 -8 88 -20 192 -25
230 -5 39 -14 122 -20 185 -6 63 -13 122 -15 130 -5 17 -38 322 -61 560 -8 85
-19 180 -24 210 -5 30 -16 129 -24 220 -40 461 -61 605 -89 625 -17 12 -104
14 -493 15 -471 0 -473 0 -484 -21 -7 -11 -9 -31 -6 -44 10 -41 28 -169 36
-260 4 -49 15 -148 24 -220 9 -71 25 -204 37 -295 11 -91 24 -190 29 -220 5
-30 14 -104 20 -165 6 -60 20 -167 31 -236 10 -70 19 -146 20 -170 0 -24 6
-82 14 -129 8 -47 23 -161 35 -254 11 -93 23 -178 25 -190 7 -27 33 -269 46
-411 5 -60 16 -145 24 -189 8 -43 15 -97 15 -120 0 -22 7 -84 15 -136 8 -52
20 -144 25 -205 6 -60 15 -132 21 -159 5 -28 14 -95 20 -150 5 -56 16 -135 24
-176 7 -41 16 -115 20 -165 3 -49 10 -106 16 -126 5 -20 16 -107 24 -194 8
-86 18 -161 20 -166 3 -4 12 -75 20 -156 8 -81 17 -161 20 -178 2 -16 9 -86
15 -155 6 -69 15 -141 20 -160 6 -19 15 -91 20 -160 13 -149 14 -156 43 -164
12 -3 335 -6 718 -6 546 0 699 3 706 13 9 11 46 267 57 387 2 25 16 131 30
235 36 259 64 474 81 635 8 74 19 164 25 200 6 36 15 112 20 170 4 58 16 157
25 220 9 63 30 210 46 325 16 116 34 237 39 270 5 33 12 95 15 138 4 42 10 75
14 72 5 -2 11 -35 14 -73 4 -38 14 -89 22 -113 9 -24 18 -71 21 -104 3 -33 14
-81 25 -107 10 -26 19 -59 19 -75 0 -41 41 -107 68 -111 28 -4 52 14 52 38 0
10 9 46 20 81 14 44 22 104 26 198 4 81 14 166 25 210 11 41 19 104 19 141 0
40 8 88 20 123 11 31 20 78 20 104 0 27 9 72 20 101 11 29 20 74 20 101 0 55
31 108 48 83 5 -8 12 -89 15 -180 3 -92 11 -183 17 -202 7 -19 16 -114 20
-210 4 -101 14 -202 23 -240 9 -36 21 -130 27 -210 5 -80 15 -161 21 -180 6
-19 14 -91 18 -160 8 -132 24 -180 61 -180 45 0 60 137 69 610 6 273 12 404
20 425 8 18 15 119 20 261 4 127 11 236 16 243 4 7 11 83 16 169 5 86 13 160
19 166 13 13 13 33 15 -674 2 -509 4 -606 19 -673 10 -50 16 -130 17 -220 1
-148 7 -208 33 -317 8 -36 16 -90 16 -120 1 -30 8 -73 16 -95 9 -22 19 -60 23
-85 9 -57 17 -70 45 -70 31 0 46 19 46 60 0 19 7 55 16 80 13 38 16 121 20
505 3 253 10 573 15 710 5 138 14 418 19 624 5 205 11 376 14 379 3 3 8 3 11
0 3 -3 10 -214 15 -469 4 -255 13 -477 18 -494 6 -16 13 -154 15 -305 4 -204
9 -287 20 -320 10 -30 17 -111 21 -238 4 -105 11 -204 17 -220 7 -15 15 -90
20 -167 6 -107 12 -151 28 -185 11 -25 21 -64 21 -87 0 -59 8 -73 41 -73 37 0
49 24 49 96 0 32 6 94 14 138 11 62 16 229 19 719 3 351 8 641 11 644 3 4 8 4
10 2 3 -3 8 -205 11 -449 5 -316 11 -473 22 -540 8 -52 16 -187 18 -300 2
-113 9 -227 15 -255 6 -27 13 -67 17 -88 7 -44 30 -59 49 -32 11 15 14 75 15
269 0 138 4 283 10 321 5 39 13 222 18 409 6 219 13 342 20 349 6 6 12 9 13 7
1 -3 4 -221 8 -485 4 -264 13 -509 18 -545 6 -36 12 -128 13 -205 1 -146 8
-175 38 -175 35 0 44 25 36 102 -10 111 -8 1104 3 1125 8 13 11 3 16 -42 4
-33 11 -73 17 -90 7 -18 13 -151 15 -325 4 -207 9 -310 19 -345 7 -27 16 -111
19 -185 6 -117 9 -139 29 -167 12 -18 29 -32 37 -30 13 2 16 34 20 194 5 180
10 217 28 199 4 -4 9 -112 12 -239 5 -223 6 -234 29 -274 27 -47 33 -50 51
-27 10 11 12 60 9 207 -2 106 -4 572 -3 1037 1 705 3 869 17 990 9 87 19 284
22 490 6 319 13 421 29 437 25 26 37 -81 44 -402 l7 -290 61 -7 c34 -3 76 -16
95 -27 19 -12 45 -21 59 -21 14 0 48 -17 76 -38 90 -68 164 -166 182 -242 6
-25 17 -63 26 -85 23 -59 21 -210 -3 -277 -11 -29 -22 -71 -26 -93 -9 -52 -58
-138 -107 -187 -52 -52 -162 -98 -253 -107 l-70 -6 -8 -120 c-10 -156 2 -1277
13 -1289 6 -6 25 -5 48 2 22 7 52 12 68 12 16 0 49 9 73 20 24 11 52 20 63 20
12 0 35 9 52 19 17 10 46 22 65 26 120 25 465 205 666 346 22 16 63 44 90 62
67 46 407 389 448 452 17 28 44 66 58 85 15 19 43 64 63 100 20 36 41 72 46
80 43 74 105 227 125 310 7 30 20 72 29 92 9 21 16 60 16 89 0 28 7 78 16 111
16 63 16 292 -1 351 -6 22 -4 27 11 27 11 0 33 -8 49 -19 24 -14 36 -35 58
-98 15 -44 30 -109 34 -144 3 -35 12 -73 19 -84 7 -11 16 -38 20 -60 10 -60
48 -105 87 -105 18 0 37 4 43 8 21 14 64 107 64 138 0 18 9 51 20 75 11 24 20
55 20 69 0 31 52 124 81 144 15 10 28 12 39 6 21 -11 50 -70 50 -102 0 -13 9
-41 20 -63 11 -22 20 -47 20 -56 0 -9 12 -33 26 -54 14 -21 30 -49 35 -63 5
-13 11 -474 14 -1050 3 -565 10 -1031 14 -1035 5 -5 200 -11 432 -14 373 -5
426 -4 437 9 10 13 12 235 12 1092 l0 1077 25 25 c22 21 33 25 78 22 l52 -3 6
-895 c7 -925 6 -891 48 -1148 18 -106 118 -383 188 -517 154 -296 470 -591
778 -725 82 -36 123 -50 215 -77 154 -45 191 -54 230 -59 19 -3 103 -14 185
-26 120 -16 176 -19 280 -14 164 9 419 33 465 45 19 5 94 24 165 42 72 18 139
38 150 45 11 6 33 15 49 18 53 13 258 117 330 169 83 59 226 183 277 241 50
58 151 212 198 303 47 92 101 227 101 253 0 11 7 34 15 52 8 18 26 89 41 158
15 69 31 131 37 138 7 9 188 12 844 12 556 0 841 3 854 10 18 10 19 26 19 428
0 362 -2 421 -16 440 l-15 22 -453 0 -453 0 -21 23 c-22 23 -22 23 -22 534 0
452 2 513 16 527 13 14 67 16 433 16 324 0 421 3 427 13 11 15 12 843 1 854
-5 4 -203 10 -440 13 l-432 5 -2 410 c-2 402 3 474 30 476 7 1 205 2 442 2
l429 2 14 25 c18 33 11 845 -7 863 -9 9 -218 12 -822 13 -584 0 -813 4 -821
12 -6 6 -15 60 -20 119 -5 59 -15 133 -23 164 -8 31 -15 67 -15 80 -1 13 -8
42 -16 64 -9 22 -20 58 -25 80 -53 216 -267 543 -443 675 -28 21 -82 63 -121
92 -77 60 -111 79 -295 166 -117 55 -304 112 -369 112 -12 0 -36 7 -52 16 -59
30 -568 62 -704 43z m288 -1390 c80 -12 104 -24 170 -86 34 -32 50 -58 66
-105 47 -143 51 -212 51 -875 0 -486 3 -624 13 -630 6 -4 296 -10 644 -13 347
-3 635 -9 640 -13 4 -5 8 -294 9 -643 0 -548 -2 -636 -14 -647 -11 -9 -170
-13 -651 -17 l-636 -5 -6 -770 c-6 -799 -7 -830 -50 -945 -43 -117 -104 -180
-217 -223 -52 -21 -133 -22 -196 -3 -140 42 -211 144 -255 364 -8 37 -11 691
-11 2102 0 2261 -2 2197 60 2333 41 92 132 164 224 177 75 11 81 11 159 -1z
m-5945 -2762 c3 -892 0 -1059 -21 -1038 -7 7 -14 160 -20 469 -5 251 -10 471
-10 487 -2 88 15 869 19 924 4 48 9 60 17 52 9 -9 13 -242 15 -894z m1639 833
c30 -33 71 -86 90 -118 45 -74 136 -257 152 -304 7 -20 19 -42 27 -48 7 -7 14
-27 14 -44 0 -17 9 -48 20 -69 12 -22 20 -56 20 -84 0 -31 7 -59 20 -78 18
-28 20 -47 20 -252 0 -199 -2 -228 -20 -273 -11 -28 -20 -69 -20 -91 0 -22 -9
-57 -20 -79 -11 -22 -20 -47 -20 -57 0 -10 -9 -35 -20 -56 -11 -20 -20 -48
-20 -61 0 -35 -18 -42 -44 -17 -12 12 -27 21 -33 21 -20 0 -73 -52 -93 -90
-28 -56 -47 -72 -70 -60 -30 16 -37 13 -95 -46 -32 -33 -55 -50 -55 -41 0 9 4
18 9 22 5 3 12 18 16 34 3 16 15 37 26 47 10 9 19 26 19 36 0 10 7 32 15 48
18 36 13 51 -26 74 -31 18 -31 19 -24 80 11 106 -31 114 -125 23 -58 -56 -149
-158 -163 -182 -11 -20 -37 -19 -37 1 0 9 6 28 14 42 28 53 65 138 76 174 6
21 16 40 21 43 17 11 9 54 -12 65 -45 25 -85 0 -151 -92 -18 -25 -55 -73 -83
-106 -27 -33 -63 -81 -78 -106 -35 -57 -67 -63 -67 -13 0 17 9 43 20 57 11 14
20 39 20 55 0 17 9 45 20 63 17 28 20 48 18 115 l-3 82 -32 3 c-37 4 -43 25
-18 58 8 10 15 40 15 65 0 26 9 75 21 110 17 53 20 79 15 156 -5 88 -5 92 19
107 23 15 24 22 27 119 2 60 7 102 13 101 6 0 24 -27 40 -60 62 -125 88 -142
125 -81 25 40 25 64 0 118 -20 46 -27 124 -11 133 12 8 107 -106 137 -165 13
-26 28 -50 34 -54 5 -3 10 -15 10 -25 0 -23 47 -80 65 -80 8 0 17 5 21 12 10
16 5 138 -8 161 -5 11 -19 51 -29 90 -11 39 -31 94 -44 122 -40 84 -30 112 19
54 14 -17 26 -37 26 -45 0 -8 9 -22 20 -31 11 -10 20 -27 20 -38 0 -27 18 -45
46 -45 25 0 34 17 34 65 0 18 6 38 14 44 12 10 17 3 31 -36 33 -97 69 -157 99
-168 23 -8 30 -6 42 10 21 28 19 139 -3 161 -11 10 -18 34 -19 59 -2 50 -72
231 -139 358 -15 28 -20 67 -9 67 3 0 30 -27 61 -60z m-4605 -917 c49 -56 63
-141 48 -288 -5 -55 -15 -154 -20 -220 -27 -307 -40 -428 -44 -432 -14 -14
-28 54 -41 199 -8 90 -21 222 -30 293 -38 321 -35 387 17 442 26 27 49 29 70
6z m4798 -803 c0 -5 -4 -10 -10 -10 -5 0 -10 5 -10 10 0 6 5 10 10 10 6 0 10
-4 10 -10z"/>
<path d="M7349 10834 c-22 -53 -18 -77 19 -116 31 -34 58 -35 95 -5 35 28 45
80 23 130 -14 36 -17 37 -66 37 l-51 0 -20 -46z"/>
<path d="M10310 7880 c-52 -4 -115 -12 -140 -18 -25 -7 -66 -12 -91 -12 -25 0
-69 -7 -98 -16 l-52 -15 30 -35 31 -35 0 -272 c-1 -194 -4 -278 -13 -294 -7
-12 -33 -40 -59 -63 -47 -41 -61 -73 -35 -82 6 -3 56 -3 110 0 l97 4 0 52 c0
32 -7 65 -20 89 -16 29 -20 56 -20 130 0 59 4 97 12 105 8 8 51 12 129 12 125
0 149 4 149 25 0 24 -19 28 -146 30 -68 2 -128 6 -134 10 -15 9 -13 258 2 273
15 15 270 17 297 2 10 -5 33 -32 51 -60 33 -51 57 -62 79 -36 11 13 8 53 -15
173 -2 13 -16 25 -35 32 -18 6 -32 10 -33 9 -1 0 -44 -4 -96 -8z"/>
<path d="M9327 7869 c-218 -51 -333 -243 -297 -496 38 -272 344 -419 580 -281
190 112 256 368 149 580 -76 149 -266 236 -432 197z m287 -149 c89 -61 136
-154 136 -274 0 -97 -70 -212 -152 -254 -86 -42 -284 -45 -365 -4 -48 25 -109
91 -130 140 -21 50 -28 171 -14 227 16 62 54 118 104 151 70 46 110 54 247 50
122 -3 127 -4 174 -36z"/>
<path d="M9745 5971 c-11 -5 -66 -10 -122 -10 -116 -1 -119 -2 -264 -88 -225
-134 -343 -276 -405 -491 -23 -80 -25 -99 -21 -242 4 -164 14 -210 72 -350 33
-78 49 -100 140 -193 88 -90 170 -146 277 -187 188 -73 396 -75 570 -7 262
104 415 259 494 502 l36 110 -5 150 c-7 160 -29 259 -85 370 -47 95 -157 216
-255 282 -37 24 -71 53 -77 63 -13 24 -71 50 -112 50 -18 0 -50 9 -71 20 -42
23 -142 35 -172 21z m212 -225 c40 -20 83 -36 96 -36 13 0 44 -16 69 -35 80
-62 151 -163 202 -285 30 -73 31 -78 30 -230 0 -147 -2 -159 -28 -223 -61
-147 -152 -257 -271 -329 -123 -74 -152 -82 -330 -82 -151 -1 -164 1 -227 26
-155 62 -270 172 -348 333 -57 118 -75 209 -67 342 6 105 32 178 103 283 54
82 165 188 203 196 14 3 37 10 51 16 162 73 143 68 300 64 143 -4 146 -4 217
-40z"/>
<path d="M9641 5279 c-31 -18 -33 -23 -28 -57 9 -56 55 -92 116 -92 55 0 91
22 110 69 10 22 10 34 1 51 -26 49 -139 66 -199 29z"/>
<path d="M7903 5931 c-136 -42 -274 -135 -381 -256 -98 -111 -192 -349 -192
-485 0 -57 29 -236 46 -288 29 -84 98 -206 156 -273 48 -57 167 -159 183 -159
3 0 23 -12 44 -26 22 -14 83 -40 138 -57 92 -29 107 -31 248 -31 127 0 161 4
225 23 117 36 248 110 271 153 17 31 8 460 -10 481 -11 14 -34 17 -137 17 -67
0 -134 -4 -147 -9 -17 -7 -31 -25 -43 -57 -17 -45 -17 -47 1 -60 12 -9 46 -14
92 -14 91 0 93 -3 93 -145 0 -104 -1 -107 -28 -135 -16 -15 -53 -35 -82 -44
-29 -9 -59 -21 -67 -28 -9 -7 -65 -13 -146 -16 l-132 -4 -95 37 c-159 61 -229
112 -320 235 -87 117 -120 226 -120 394 0 195 166 447 360 546 101 51 164 63
317 58 129 -4 143 -6 211 -37 40 -17 89 -43 109 -56 20 -14 46 -25 58 -25 41
0 93 70 80 110 -3 10 -20 29 -38 43 -46 35 -167 97 -189 97 -10 0 -44 9 -75
20 -47 17 -82 20 -198 19 -124 0 -150 -3 -232 -28z"/>
<path d="M10862 5937 c-8 -9 -13 -260 -18 -784 l-7 -771 23 -12 c17 -9 95 -11
309 -7 248 4 299 7 379 26 136 31 288 112 383 202 170 161 253 397 230 644 -9
95 -52 253 -80 295 -9 14 -23 37 -30 51 -26 52 -103 140 -162 187 -86 67 -225
140 -279 147 -25 3 -65 12 -90 20 -62 21 -642 22 -658 2z m694 -171 c71 -20
116 -45 209 -114 110 -82 160 -155 210 -308 47 -143 32 -308 -40 -459 -37 -77
-56 -103 -127 -170 -107 -103 -201 -152 -338 -176 -63 -10 -397 -13 -423 -3
-10 3 -22 15 -28 26 -7 13 -12 216 -14 602 -3 512 -2 584 12 605 l15 24 237
-6 c161 -4 252 -11 287 -21z"/>
</g>
</svg>
